<?xml version="1.0" standalone="no"?>
<!DOCTYPE svg PUBLIC "-//W3C//DTD SVG 20010904//EN"
 "http://www.w3.org/TR/2001/REC-SVG-20010904/DTD/svg10.dtd">
<svg version="1.0" xmlns="http://www.w3.org/2000/svg"
 width="300.000000pt" height="300.000000pt" viewBox="0 0 300.000000 300.000000"
 preserveAspectRatio="xMidYMid meet">
<metadata>
Created by potrace 1.10, written by Peter Selinger 2001-2011
</metadata>
<g transform="translate(0.000000,300.000000) scale(0.050000,-0.050000)"
fill="#ffa502" stroke="none">
<path d="M2359 4373 c-51 -86 -31 -83 -214 -31 -165 46 -215 26 -198 -77 9
-55 -6 -56 -94 -4 -61 36 -108 49 -243 64 -23 3 -38 -6 -35 -20 3 -14 -9 -25
-26 -25 -17 0 -26 -9 -18 -21 7 -11 3 -33 -10 -47 -16 -20 -14 -33 7 -50 15
-13 33 -44 40 -70 6 -25 32 -56 57 -68 42 -22 40 -23 -25 -22 -122 3 -137 -1
-150 -42 -9 -29 4 -58 44 -100 31 -33 56 -67 56 -76 0 -35 79 -92 244 -176
200 -103 184 -99 181 -48 -2 22 -9 40 -15 40 -13 0 -111 75 -163 125 -21 19
-45 35 -54 35 -54 0 -88 132 -52 201 19 38 36 96 37 129 1 43 11 58 32 52 62
-16 180 -3 238 27 37 19 112 31 200 31 84 0 150 10 166 25 15 14 40 28 56 32
116 30 187 41 306 51 l137 11 -89 -99 c-142 -158 -147 -327 -14 -457 101 -100
133 -123 149 -107 7 7 21 0 31 -16 36 -58 40 -2 9 132 -43 191 -49 208 -72
208 -12 0 -16 -14 -9 -32 7 -17 18 -69 25 -115 l13 -83 -53 48 c-212 195 34
529 275 372 139 -92 145 -225 16 -380 l-50 -60 13 80 c7 44 19 100 25 125 7
26 4 45 -8 45 -11 0 -35 -65 -53 -145 -18 -80 -37 -161 -43 -180 -22 -71 71
-35 180 70 118 115 146 190 126 341 l-11 84 58 -65 c32 -36 65 -65 73 -65 8 0
33 -21 55 -47 23 -26 54 -51 71 -56 17 -6 31 -38 33 -79 4 -99 13 -125 52
-154 20 -15 30 -35 24 -46 -7 -10 -5 -17 5 -14 9 4 55 -26 104 -64 48 -39 95
-68 105 -65 9 3 17 -6 18 -20 0 -14 34 -39 75 -57 40 -18 114 -49 162 -69 51
-22 103 -63 125 -98 l36 -61 -10 80 c-5 44 -17 82 -25 85 -8 3 -78 52 -156
110 -78 58 -220 162 -317 231 -226 163 -208 172 79 42 181 -82 241 -101 267
-85 102 65 -40 177 -477 378 -159 74 -353 164 -430 201 -77 37 -194 82 -260
100 -66 19 -163 45 -214 59 -52 15 -158 33 -235 40 l-139 14 -43 -72z"/>
<path d="M1469 3665 c-6 -30 -23 -88 -38 -128 -20 -55 -21 -80 -4 -98 17 -18
17 -26 -3 -33 -20 -8 -20 -16 -2 -38 18 -22 16 -28 -13 -28 -33 0 -33 -2 -2
-37 49 -54 45 -56 -99 -54 -138 1 -167 -12 -128 -59 39 -47 41 -171 2 -165
-115 18 12 -299 176 -440 116 -100 199 -143 142 -75 -60 72 208 -90 432 -260
45 -35 148 -97 229 -139 80 -42 245 -143 366 -224 121 -82 231 -144 244 -139
13 4 49 -9 81 -30 32 -21 76 -38 99 -38 23 0 51 -10 63 -22 23 -23 72 -30 348
-47 125 -8 195 -3 256 18 78 28 92 27 188 -9 222 -85 436 27 352 184 -12 22
-17 44 -11 49 5 6 -17 34 -50 64 -116 103 -38 148 93 53 185 -135 381 -99 424
77 31 130 42 116 -182 230 -268 138 -316 183 -190 183 122 0 228 64 198 121
-12 22 -17 48 -11 57 6 10 -3 23 -20 30 -18 6 -27 20 -21 29 6 10 -8 35 -31
55 -23 21 -68 71 -99 111 l-59 73 58 58 c138 138 -18 308 -198 215 -68 -35
-69 -36 -28 -77 27 -28 28 -41 2 -117 -27 -78 -40 -168 -35 -230 7 -80 82 -21
82 65 0 106 24 116 62 26 32 -78 172 -222 199 -206 31 20 22 -44 -11 -77 -16
-16 -56 -36 -88 -43 -152 -33 -181 -159 -62 -266 22 -20 23 -23 2 -12 -19 9
-23 6 -14 -9 8 -13 28 -23 44 -23 17 0 25 -9 18 -20 -7 -11 1 -15 17 -8 16 6
36 0 44 -14 10 -16 7 -19 -11 -8 -17 10 -21 8 -12 -6 7 -12 25 -18 40 -12 15
6 32 -4 39 -21 6 -17 24 -31 39 -31 15 0 27 -13 27 -29 0 -20 -9 -24 -32 -12
-18 10 -46 10 -62 1 -20 -11 -63 -1 -122 29 -64 33 -100 41 -119 27 -22 -15
-20 -17 8 -8 21 7 31 3 24 -8 -7 -11 -24 -20 -38 -20 -64 0 -132 -101 -112
-165 3 -8 7 -24 10 -35 3 -11 7 -24 10 -30 12 -24 11 -62 -2 -80 -8 -11 -15
-27 -16 -35 -1 -8 -6 -15 -12 -15 -5 0 -33 0 -61 0 -28 0 -46 8 -40 19 7 10
-6 19 -29 20 -22 0 -58 2 -80 2 -26 1 -36 10 -27 25 11 18 7 18 -14 2 -30 -23
-59 -28 -179 -29 -58 -1 -63 -4 -30 -18 31 -14 18 -19 -54 -20 -51 0 -99 7
-105 17 -6 10 -54 18 -106 19 -265 3 -785 257 -785 383 0 19 -13 46 -30 60
-16 14 -30 37 -30 52 0 93 -194 228 -328 228 -141 0 -580 149 -636 217 -85
101 -122 207 -94 274 14 32 23 66 21 74 -2 8 7 15 18 15 12 0 17 7 12 15 -5 8
4 27 19 41 15 14 28 21 28 15 0 -14 90 75 90 89 0 6 7 20 15 32 7 12 20 60 27
106 14 91 56 127 125 109 46 -12 61 -87 18 -87 -51 -1 36 -39 89 -40 30 0 96
-14 147 -31 113 -39 130 -27 71 52 -38 52 -41 66 -18 94 17 22 18 28 2 18 -29
-17 -272 82 -410 168 l-95 58 -12 -54z m2763 -528 c14 -24 -87 -128 -106 -109
-5 5 -4 37 4 71 14 63 73 85 102 38z m-2442 -682 c32 -29 65 -48 74 -43 9 6
79 -23 157 -64 88 -46 132 -80 117 -89 -16 -10 -4 -25 34 -46 86 -47 19 -40
-74 8 -44 22 -85 54 -91 70 -6 16 -27 29 -45 29 -19 0 -43 8 -53 19 -10 10
-68 45 -128 77 -60 32 -112 67 -116 78 -12 38 69 13 125 -39z m339 -38 c28
-13 51 -31 51 -41 0 -10 27 -27 60 -39 33 -12 60 -33 60 -48 0 -30 -49 -20
-100 21 -16 14 -52 30 -80 37 -85 21 -116 49 -80 73 37 24 29 24 89 -3z m242
-225 c21 -16 33 -35 26 -42 -17 -17 -97 25 -97 51 0 27 26 24 71 -9z"/>
<path d="M2895 3593 c-24 -72 -4 -123 45 -118 36 4 42 0 22 -13 -33 -22 -15
-82 25 -82 15 0 39 14 53 30 14 17 36 30 49 30 13 0 23 20 21 45 -3 36 -15 44
-57 39 -29 -3 -53 4 -53 15 0 12 28 21 61 21 37 0 56 8 48 21 -7 11 -28 16
-46 10 -19 -6 -62 -3 -97 7 -44 13 -65 11 -71 -5z"/>
<path d="M3414 3254 c-5 -15 7 -38 28 -51 39 -24 47 -10 26 45 -15 39 -40 41
-54 6z"/>
<path d="M2085 3213 c-50 -25 -59 -69 -17 -85 23 -9 21 -31 -10 -134 -46 -151
-48 -212 -7 -227 43 -16 55 1 69 98 l12 85 34 -65 c190 -356 312 -254 341 285
4 79 -69 88 -79 10 -4 -27 -17 -115 -30 -193 -13 -79 -17 -169 -10 -200 11
-52 4 -48 -77 43 -102 114 -105 122 -53 135 21 6 49 30 62 55 20 37 19 42 -3
29 -22 -12 -22 -10 -2 12 91 99 -92 220 -230 152z m191 -87 c-3 -19 -36 -51
-72 -72 l-66 -39 14 58 c19 81 25 87 81 87 36 0 48 -9 43 -34z"/>
<path d="M2647 3194 c-133 -92 -129 -169 13 -212 47 -14 80 -36 80 -54 0 -35
-131 -96 -172 -80 -43 16 -34 -56 11 -98 52 -46 135 -15 221 83 70 80 50 142
-62 188 -40 16 -56 35 -49 54 8 20 2 26 -19 18 -45 -17 -36 2 12 28 29 16 39
16 29 1 -16 -26 106 -6 145 24 18 14 33 13 49 -3 28 -28 62 -31 45 -3 -7 11 2
20 19 20 38 0 38 5 0 -210 -34 -197 -26 -250 37 -250 39 0 44 11 45 105 3 240
45 370 121 379 67 8 68 7 68 -68 0 -42 -10 -76 -21 -76 -14 0 -20 -44 -17
-117 3 -64 -1 -126 -9 -138 -25 -40 24 -47 112 -18 47 16 119 36 159 43 40 8
78 27 85 44 9 23 24 16 69 -32 146 -156 354 8 332 262 -10 124 -29 145 -127
145 -105 0 -261 -170 -262 -286 -1 -43 -8 -47 -61 -36 -34 7 -60 3 -60 -7 0
-11 -32 -20 -72 -20 l-72 0 14 167 c12 139 9 169 -16 179 -25 9 -400 6 -464
-4 -11 -2 -42 1 -70 6 -32 6 -73 -6 -113 -34z m1228 -134 c-8 -57 -5 -76 12
-67 13 8 16 6 6 -5 -9 -10 -20 -16 -25 -13 -4 3 -38 -29 -76 -69 -124 -136
-193 23 -70 163 92 105 167 101 153 -9z"/>
<path d="M1762 3159 c-207 -198 -57 -536 158 -357 28 23 37 35 20 26 -20 -10
-18 -1 7 28 65 74 26 118 -49 56 -94 -80 -138 -70 -138 30 0 104 85 198 178
198 66 0 77 17 38 56 -45 45 -146 28 -214 -37z"/>
<path d="M2780 2644 c0 -7 25 -32 55 -56 82 -66 40 -80 -63 -22 -49 27 -94 45
-100 39 -25 -24 58 -122 112 -133 105 -21 171 57 111 132 -25 31 -115 63 -115
40z"/>
<path d="M1550 2380 c66 -44 90 -49 90 -22 0 10 -28 28 -63 40 -90 31 -95 27
-27 -18z"/>
</g>
</svg>
